<svg xmlns="http://www.w3.org/2000/svg" width="146" height="123" fill="none"><path fill="#000" d="M26.77 44.166a41.538 41.538 0 0 1 5.412-7.653l-1.245-1.501a45.927 45.927 0 0 0-1.576 1.848 43.164 43.164 0 0 0-3.998 5.88l.091.064c.513.375.958.836 1.316 1.362ZM119.306 44.299a5.713 5.713 0 0 1 1.367-1.5 43.105 43.105 0 0 0-4.031-5.939 44.986 44.986 0 0 0-2.054-2.372c-.029.293-.095.58-.197.856-.15.4-.361.774-.625 1.108a41.45 41.45 0 0 1 5.54 7.847ZM76.24 27.994h-6.447v.767h6.448v-.767ZM76.24 29.525h-6.447v.768h6.448v-.768ZM76.24 31.023h-6.447v.768h6.448v-.768ZM72.452 90.772h-2.651v.767h2.651v-.767ZM76.247 90.772h-2.651v.767h2.651v-.767ZM72.452 92.305h-2.651v.767h2.651v-.767ZM76.247 92.305h-2.651v.767h2.651v-.767ZM72.452 93.803h-2.651v.767h2.651v-.767ZM76.247 93.803h-2.651v.767h2.651v-.767ZM50.544 84.661l-.54.542 1.873 1.888.54-.542-1.873-1.888ZM47.862 81.958l-.54.542 1.873 1.887.54-.542-1.873-1.887ZM51.622 83.58l-.54.541 1.873 1.887.54-.541-1.873-1.888ZM48.94 80.878l-.54.542 1.873 1.887.54-.542-1.873-1.887ZM49.995 79.82l-.54.541 4.554 4.59.54-.542-4.554-4.59ZM94.72 40.331l-.54.542 1.873 1.887.54-.542-1.873-1.887ZM92.038 37.628l-.54.542 1.873 1.887.54-.542-1.873-1.887ZM93.118 36.546l-.54.542 4.554 4.59.54-.543-4.554-4.59ZM94.171 35.487l-.54.542 4.554 4.59.54-.542-4.554-4.59ZM40.675 58.049h-.763v6.483h.763V58.05ZM42.199 61.867h-.764v2.667h.764v-2.667ZM42.199 58.049h-.764v2.666h.764V58.05ZM43.687 58.049h-.763v6.483h.763V58.05ZM103.122 61.865h-.763v2.667h.763v-2.667ZM103.122 58.049h-.763v2.666h.763V58.05ZM104.646 58.049h-.763v6.483h.763V58.05ZM106.136 61.865h-.763v2.667h.763v-2.667ZM106.136 58.049h-.763v2.666h.763V58.05ZM49.131 38.193l-1.87 1.891.542.54 1.87-1.89-.542-.541ZM51.807 35.486l-1.87 1.891.542.54 1.869-1.89-.541-.541ZM52.887 36.566l-4.545 4.598.54.541 4.547-4.598-.542-.541ZM53.944 37.623l-4.546 4.598.542.54 4.545-4.598-.541-.54ZM93.426 82.466l-1.87 1.891.542.541 1.87-1.89-.542-.541ZM96.104 79.781l-1.87 1.89.541.542 1.87-1.89-.541-.542ZM94.508 83.568l-1.87 1.891.542.541 1.87-1.89-.542-.542ZM97.184 80.861l-1.87 1.891.542.541 1.87-1.89-.542-.542ZM98.239 81.896l-4.546 4.598.541.541 4.546-4.598-.541-.541ZM24.74 73.225c.515.139.996.38 1.415.711l6.12.022a2.403 2.403 0 0 0-.663-1.088c-1.022-.941-2.501-.521-2.607-.489a5.75 5.75 0 0 0 .906-1.488c.052-.126 1.02-2.562-.066-4.865-.362-.765-.647-.875-1.392-2.333a19.8 19.8 0 0 1-.685-1.488c.367.114.745.187 1.128.216.893.068 1.57-.12 2.142-.283.952-.273 1.604-.643 2.23-1 .128-.072.608-.41 1.569-1.088.328-.23.601-.429.773-.8.113-.242.27-.746.043-.955-.277-.255-.929.117-.995.156a1.73 1.73 0 0 0-.685.777c-.99.126-1.985.2-2.982.222-3.645.079-4.32-.613-4.55-.91-.212-.28-.35-.609-.406-.956.691-.03 1.38-.1 2.062-.207 1.352-.213 2.042-.33 2.71-.83.248-.184.86-.655 1.149-1.51a3.08 3.08 0 0 0 .118-1.392c-.08-.543-.304-1.035-1.917-2.783-1.706-1.848-2.295-2.208-2.738-2.43a6.585 6.585 0 0 0-1.356-.503c-.248-1.068-.766-2.616-1.845-3.392-.17-.122-.589-.424-.84-.28-.214.122-.19.505-.176 1.254.008.42.015 1.057.004 1.856a4.232 4.232 0 0 1-.987-.378c-.415-.223-.578-.401-1.303-.978-.613-.487-.92-.73-1.149-.844-.12-.059-.896-.443-1.613-.333-1.513.232-2.186 2.587-2.297 2.977-.133.463-.619 2.39.353 4.087.407.71.993 1.207 2.165 2.2 1.08.915 1.674 1.204 2.017 2.076.099.25.364.95.104 1.677-.192.54-.614.938-1.436 1.378-.777.418-2.237 1.05-4.44 1.177a1.165 1.165 0 0 0-.597-.4c-.272-.073-.725-.079-.861.156-.161.277.193.767.463 1.023.467.44 1.053.52 1.348.554 1.5.184 2.87.27 3.711.311a24.31 24.31 0 0 1-1.81 2.733c-.668.872-1.112 1.33-1.518 1.809a6.797 6.797 0 0 1-.67-.721c-.137-.17-.602-.767-1.017-1.733-.095-.222-.391-.938-.64-2.332-.276-1.54-.132-1.879-.354-3.221-.17-1.025-.292-1.732-.663-2.533-.29-.624-.898-1.662-2.21-2.62a9.477 9.477 0 0 1 1.262 1.864c.148.287.636 1.276.928 2.777.212 1.092.1 1.332.221 2.888.119 1.527.207 2.664.597 3.843.243.738.711 1.812 1.683 2.978-.01.014-.018.028-.027.043-.664 1.092-1.265 2.08-1.237 3.443.02.913.32 1.952.848 2.603a2.203 2.203 0 0 0-.78.463 2.393 2.393 0 0 0-.662 1.088h5.54c-.001-.146-.017-.29-.047-.434 1.456-.176 3.12-.76 4.779-1.81a3.917 3.917 0 0 1 1.833.045Zm2.369-20.97c.593 0 1.075.32 1.075.716 0 .395-.481.715-1.075.715s-1.075-.32-1.075-.715c0-.395.48-.716 1.075-.716ZM134.195 55.987c-.371.8-.493 1.507-.662 2.532-.222 1.343-.078 1.68-.354 3.221-.25 1.395-.545 2.11-.641 2.333-.414.966-.879 1.562-1.017 1.732a6.81 6.81 0 0 1-.806.845c-.414-.493-.865-.952-1.549-1.848a24.221 24.221 0 0 1-1.812-2.732 53.3 53.3 0 0 0 3.712-.311c.296-.037.879-.116 1.347-.554.27-.256.625-.745.464-1.023-.136-.235-.589-.23-.862-.156a1.165 1.165 0 0 0-.596.4c-2.205-.128-3.664-.76-4.44-1.178-.822-.44-1.245-.838-1.437-1.377-.259-.728.006-1.428.104-1.678.344-.871.937-1.16 2.017-2.076 1.172-.993 1.759-1.49 2.165-2.2.973-1.697.486-3.623.354-4.087-.111-.39-.785-2.744-2.298-2.976-.716-.11-1.493.274-1.611.333-.229.113-.536.357-1.149.844-.725.576-.89.755-1.303.977a4.224 4.224 0 0 1-.986.378 54.34 54.34 0 0 1 .003-1.855c.014-.749.038-1.133-.177-1.255-.25-.143-.67.158-.839.28-1.079.777-1.597 2.324-1.845 3.393a6.578 6.578 0 0 0-1.356.503c-.442.223-1.031.583-2.738 2.43-1.611 1.748-1.837 2.24-1.916 2.782-.068.467-.027.944.118 1.392.288.856.901 1.326 1.148 1.511.669.499 1.357.616 2.711.83.682.107 1.371.177 2.061.207a2.158 2.158 0 0 1-.404.955c-.231.299-.908.99-4.552.91a28.317 28.317 0 0 1-2.982-.221 1.73 1.73 0 0 0-.685-.778c-.066-.038-.717-.412-.994-.155-.225.208-.068.712.043.955.172.371.446.569.773.8.961.677 1.441 1.016 1.568 1.088.628.356 1.279.725 2.232 1 .57.163 1.248.351 2.141.283.383-.03.761-.102 1.128-.216-.144.351-.371.873-.685 1.488-.745 1.458-1.03 1.568-1.391 2.332-1.088 2.302-.119 4.74-.067 4.865.225.54.531 1.042.906 1.489-.106-.032-1.585-.453-2.607.488a2.403 2.403 0 0 0-.662 1.09l6.119-.023a3.906 3.906 0 0 1 3.247-.755c1.716 1.086 3.438 1.674 4.929 1.826-.017.11-.026.22-.027.332h5.539a2.396 2.396 0 0 0-.663-1.088 2.216 2.216 0 0 0-.862-.49c.476-.655.745-1.628.763-2.491.028-1.353-.565-2.337-1.223-3.42 1.059-1.224 1.557-2.36 1.812-3.13.389-1.179.478-2.316.596-3.843.121-1.555.01-1.796.221-2.888.291-1.5.781-2.49.928-2.777a9.514 9.514 0 0 1 1.259-1.865c-1.312.96-1.92 1.997-2.21 2.622Zm-15.26-2.282c-.594 0-1.076-.32-1.076-.716 0-.395.482-.716 1.076-.716.593 0 1.075.32 1.075.716 0 .396-.484.716-1.078.716h.003ZM24.968 79.92l1.546-1.182a38.771 38.771 0 0 1-1.382-2.898l-.29-.23a1.788 1.788 0 0 0-1.204-.385c-.223.133-.448.26-.675.38a40.175 40.175 0 0 0 2.005 4.316ZM122.476 75.156c-.404 0-.795.136-1.111.388l-.559.441c-.417.969-.876 1.92-1.374 2.856l1.621 1.044a40.042 40.042 0 0 0 2.043-4.425 15.614 15.614 0 0 1-.527-.299.657.657 0 0 0-.093-.005ZM33.567 84.623l-2.059 1.574-2.957-3.91 2.06-1.575-1.162-1.536-5.66 4.327 1.162 1.537 2.36-1.805 2.957 3.91-2.36 1.805 1.161 1.537 5.66-4.327-1.162-1.537ZM40.764 91.283l-2.55 3.132c-.144.178-.31.336-.496.469a1.191 1.191 0 0 1-.615.216c-.23.018-.49-.033-.782-.152-.29-.119-.622-.331-.993-.636-.373-.308-.648-.594-.823-.859-.175-.265-.276-.512-.304-.743-.03-.22 0-.445.088-.65a2.45 2.45 0 0 1 .358-.583l2.55-3.132-1.481-1.22-2.987 3.666c-.224.273-.372.6-.432.95a2.45 2.45 0 0 0 .092 1.144c.123.406.346.832.67 1.278.324.443.758.889 1.302 1.337.544.449 1.063.787 1.556 1.017.494.229.951.364 1.372.406.42.041.799-.004 1.134-.136.328-.127.618-.338.84-.613l2.986-3.666-1.485-1.225ZM47.334 100.874l-2.012-6.6-1.852-.963-3.267 6.35 1.705.887 2.245-4.363 2.016 6.579 1.848.961 3.266-6.35-1.696-.882-2.253 4.381ZM55.319 101.687 54 98.27l-2.058-.635 2.06 5.061-.851 2.791 1.83.565.852-2.791 4.529-3.027-2.058-.635-2.986 2.088ZM66.993 105.242c-.029.228-.088.45-.176.662a1.205 1.205 0 0 1-.41.509c-.186.136-.435.231-.745.284-.31.053-.702.047-1.178-.016-.478-.064-.86-.163-1.148-.295-.287-.133-.503-.289-.648-.469a1.227 1.227 0 0 1-.265-.6 2.471 2.471 0 0 1 0-.685l.532-4.013-1.898-.256-.622 4.699c-.048.351-.004.708.127 1.036.133.336.36.645.678.925.32.28.732.523 1.237.73.507.206 1.11.356 1.807.449.697.093 1.316.107 1.856.043.539-.066.998-.193 1.378-.38.38-.187.678-.426.894-.715.213-.282.348-.615.394-.966l.622-4.699-1.903-.256-.532 4.013ZM73.698 101.445l-3.508 7.257 2.141-.064.627-1.372 3.962-.118.707 1.332 2.142-.064-3.93-7.033-2.14.062Zm-.093 4.406 1.226-2.67 1.37 2.593-2.596.077ZM86.892 99.815l.964 4.837-5.672-3.888-2.045.412 1.397 7.01 1.882-.379-.96-4.817 5.664 3.869 2.04-.411-1.398-7.01-1.872.377ZM100.208 94.662l-7.224 3.36.65 1.412 2.738-1.273 2.335 5.076 1.743-.81-2.335-5.077 2.743-1.276-.65-1.412ZM102.994 92.8l.957 8.011 1.766-1.22-.212-1.494 3.268-2.256 1.311.735 1.767-1.22-7.092-3.776-1.765 1.22Zm4.436 2.277-2.142 1.478-.407-2.913 2.549 1.435ZM109.607 87.536l-1.416 1.304 4.804 5.27 1.415-1.303-4.803-5.271ZM117.665 85.277l-3.416-2.916-1.239 1.468 3.183 2.718c.154.128.288.279.397.447.1.157.159.337.173.523.01.21-.027.42-.11.613-.088.218-.24.456-.456.713a7.145 7.145 0 0 1-1.133 1.084 5.46 5.46 0 0 1-.498.336 9.598 9.598 0 0 1-.444.25l1.272 1.084a12.734 12.734 0 0 0 1.561-1.323c.196-.193.378-.388.545-.586.324-.374.602-.785.828-1.225.196-.396.306-.78.328-1.151a2.131 2.131 0 0 0-.208-1.066c-.161-.338-.423-.661-.783-.969ZM116.144 79.64l-1.037 1.622 5.973 3.86 1.036-1.621-5.972-3.861ZM33.946 30.514l3.61 4.256 1.46-1.253-3.61-4.256 2.3-1.972-1.004-1.184-6.055 5.194 1.004 1.184 2.295-1.969ZM42.806 30.642l-.103-1.506 3.421-2.013 1.256.829 1.849-1.088-6.802-4.282-1.849 1.088.38 8.06 1.848-1.088Zm2.035-4.378-2.242 1.319-.197-2.935 2.439 1.616ZM48.964 19.429l-1.767.757 2.786 6.578 1.767-.757-2.786-6.578ZM58.794 23.642l-.602-2.92 4.783-.997.602 2.92 1.88-.392-1.443-7.001-1.88.392.525 2.548-4.783.997-.525-2.548-1.88.392 1.443 7 1.88-.391ZM74.378 21.83l-.062-1.524-5.294.22-.057-1.394 4.953-.205-.062-1.523-4.954.204-.047-1.18 5.221-.216-.062-1.522-7.192.296.291 7.144 7.265-.3ZM80.493 21.595c.38.386.855.708 1.428.968a8.062 8.062 0 0 0 1.93.578c.316.057.634.097.954.12.287.021.574.025.862.013a8.23 8.23 0 0 0 .805-.078c.262-.038.524-.087.788-.146l.296-1.712a11.59 11.59 0 0 1-.667.213c-.248.07-.501.122-.757.155-.294.037-.59.053-.886.047a6.672 6.672 0 0 1-1.06-.11 5.906 5.906 0 0 1-1.037-.27 3.732 3.732 0 0 1-.757-.374 2.147 2.147 0 0 1-.509-.455 1.812 1.812 0 0 1-.407-1.068c-.01-.19.003-.38.035-.567.049-.28.146-.55.287-.798.149-.256.361-.469.617-.617.27-.164.612-.272 1.026-.326.414-.054.919-.029 1.513.076.35.06.695.148 1.031.264.28.099.552.218.815.355.229.12.45.257.66.407.195.143.38.284.556.423l.297-1.712a10.37 10.37 0 0 0-.691-.407 8.283 8.283 0 0 0-.733-.348 7.373 7.373 0 0 0-.814-.284 9.233 9.233 0 0 0-.938-.213 8.02 8.02 0 0 0-2.01-.117 4.66 4.66 0 0 0-1.67.421c-.477.225-.893.561-1.214.98-.322.421-.537.94-.645 1.56-.108.618-.081 1.18.079 1.685.161.505.442.964.816 1.337ZM95.608 24.73l-4.914-1.682 1.789-5.285-1.818-.622-2.29 6.768 6.73 2.303.503-1.482ZM98.031 27.674c.4.375.908.733 1.527 1.073.618.34 1.189.575 1.714.708.527.133 1.001.18 1.422.144a2.407 2.407 0 0 0 1.09-.345 2.03 2.03 0 0 0 .713-.758l2.262-4.157-1.685-.925-1.93 3.552a2.53 2.53 0 0 1-.401.554c-.155.16-.35.273-.564.328-.223.059-.489.057-.797-.005-.308-.063-.672-.21-1.093-.44-.424-.234-.746-.464-.966-.692-.22-.227-.365-.452-.436-.673a1.229 1.229 0 0 1-.034-.655c.052-.224.134-.439.245-.64l1.931-3.552-1.68-.923-2.261 4.157c-.17.31-.256.659-.25 1.013.004.362.104.731.3 1.108.197.377.494.753.893 1.128ZM108.513 34.817c.202.172.406.33.61.475.192.139.396.262.608.369.19.096.391.17.599.221a1.532 1.532 0 0 0 1.158-.181 2.16 2.16 0 0 0 .546-.483c.158-.182.283-.39.371-.614.074-.196.098-.407.069-.615a1.686 1.686 0 0 0-.248-.645 3.684 3.684 0 0 0-.577-.696c.432.248.823.341 1.171.28.349-.06.672-.27.969-.625.151-.172.271-.37.356-.582.069-.177.102-.365.1-.555a1.441 1.441 0 0 0-.111-.522 2.434 2.434 0 0 0-.273-.486 3.75 3.75 0 0 0-.388-.454 7.657 7.657 0 0 0-.452-.416l-3.876-3.28-4.579 5.47 3.947 3.34Zm1.179-6.47 2.166 1.834c.125.1.236.219.328.351a.832.832 0 0 1 .127.307.5.5 0 0 1-.023.262.82.82 0 0 1-.33.395.458.458 0 0 1-.25.064.806.806 0 0 1-.316-.086 1.798 1.798 0 0 1-.397-.268l-2.166-1.833.861-1.025Zm.353 3.91c.198.168.363.318.494.452.114.11.208.237.28.377a.544.544 0 0 1 .052.341.809.809 0 0 1-.188.354.806.806 0 0 1-.315.248.553.553 0 0 1-.346.01 1.38 1.38 0 0 1-.419-.214 7.143 7.143 0 0 1-.527-.412l-2.124-1.792.969-1.159 2.124 1.795ZM41.278 72.236a.127.127 0 0 1-.093.07c-.042.01-.09.074-.14.193-.049.119-.08.18-.094.187-.014.007-.013.043.004.108a.429.429 0 0 0 .061.147.26.26 0 0 0 .156.101c.07.016.143.015.212-.003.078-.02.125-.046.14-.076a.212.212 0 0 1 .118-.086.439.439 0 0 1 .184-.034c.057 0 .13-.004.216-.01.069-.004.138-.004.206 0a.298.298 0 0 0 .11-.004c.023-.008.07 0 .138.026.069.026.113.033.133.024.02-.009.078-.003.17.019.09.02.182.032.275.034.095.002.19.017.28.046.098.03.174.032.228.008.055-.024.077-.047.067-.07-.01-.023-.023-.033-.04-.033a1.86 1.86 0 0 1-.243-.076c-.148-.051-.304-.1-.47-.148a9.184 9.184 0 0 1-.354-.108 5.075 5.075 0 0 0-.22-.07 13.263 13.263 0 0 1-.487-.165c-.2-.08-.337-.127-.411-.137-.077-.011-.124.008-.146.057ZM43.563 71.235c-.069.031-.104.055-.106.073-.001.018-.038.066-.109.146a2.077 2.077 0 0 0-.142.194 1.424 1.424 0 0 0-.094.224.483.483 0 0 0-.051.22.295.295 0 0 0 .098.166.3.3 0 0 0 .33.068.413.413 0 0 0 .263-.266c.027-.08.035-.204.025-.37a1.173 1.173 0 0 0-.07-.373l-.053-.122-.091.04ZM45.209 75.523c-.007-.014-.043-.027-.105-.042a.287.287 0 0 0-.114-.012c-.044.02-.126.02-.246 0a22.964 22.964 0 0 0-.307-.042 1.928 1.928 0 0 1-.42-.1l-.198-.073.183-.06.273-.086c.072-.022.143-.042.212-.058a.282.282 0 0 0 .217-.198.723.723 0 0 0 .05-.214c-.003-.028-.03-.061-.078-.095a.174.174 0 0 0-.114-.043c-.027.005-.05.031-.073.08a.272.272 0 0 1-.114.085 10.86 10.86 0 0 1-.45.208c-.361.155-.572.234-.63.236-.06.002-.09.014-.09.036s-.065.066-.194.134c-.17.097-.325.218-.46.36-.13.138-.21.266-.239.386a.43.43 0 0 1-.034.102.962.962 0 0 0-.024.211c-.005.078-.002.155.008.232.018.067.03.135.035.203.013.105.038.207.073.306.042.13.067.207.073.233.006.046.059.14.159.286.066.105.146.202.237.287a.427.427 0 0 0 .118.085.303.303 0 0 0 .139.003c.152-.014.305-.094.458-.24.109-.094.23-.174.36-.236.164-.085.251-.14.26-.162-.008-.04-.127-.036-.356.012-.237.052-.427.015-.569-.11-.163-.142-.288-.35-.375-.623-.086-.273-.097-.502-.033-.686a.497.497 0 0 1 .112-.214c.083-.078.175-.147.275-.205l.199-.14.101.05c.092.049.18.105.262.168.23.153.475.286.73.395.056.029.087.05.094.067.015.032.099.06.255.085a.155.155 0 0 0 .15-.062c.046-.053.066-.086.06-.1-.007-.015.015-.088.066-.222.05-.133.07-.213.063-.227ZM41.65 74.481c.11.039.227.06.344.061.1.007.199.02.297.04.093.02.264.068.515.145.251.077.396.106.435.085.024-.01.123-.008.297.006.042 0 .084 0 .124.003.04.003.07.002.091.003.022 0 .032 0 .03-.006-.009-.02-.239-.127-.69-.32-.377-.156-.572-.249-.584-.277-.016-.013.015-.022.09-.026.037-.002.129-.038.274-.107.146-.07.235-.122.268-.156.013-.015.026-.018.04-.01a.308.308 0 0 1 .045.038c.066.067.14.124.223.17.091.054.174.121.243.201a.343.343 0 0 0 .17.125.132.132 0 0 0 .082.007.213.213 0 0 0 .065-.066.18.18 0 0 0 .046-.144.627.627 0 0 0-.098-.189c-.057-.085-.097-.128-.121-.128a.81.81 0 0 1-.146-.102c-.074-.059-.112-.096-.113-.11.009-.023.037-.045.084-.067a.35.35 0 0 0 .14-.135.392.392 0 0 0 .071-.191.153.153 0 0 0-.007-.073c-.007-.01-.03-.008-.073.007a4.23 4.23 0 0 0-.438.187c-.477.22-.787.342-.933.363a1.356 1.356 0 0 1-.264.023.194.194 0 0 1-.116-.05.191.191 0 0 0-.141-.05.172.172 0 0 0-.128.052.188.188 0 0 1-.084.067c-.04.018-.106.083-.196.196l-.144.166.066.101a.445.445 0 0 0 .236.161Z"/><path fill="#000" d="M45.282 75.066c.034.01.07.009.104-.003a.24.24 0 0 1 .114-.01.58.58 0 0 0 .203-.032c.069-.023.14-.038.212-.047a2.9 2.9 0 0 0 .306-.06c.149-.034.242-.045.279-.032a.132.132 0 0 0 .1 0c.031-.014.064 0 .1.036a.211.211 0 0 0 .23.04.298.298 0 0 0 .185-.196 1.904 1.904 0 0 0 .08-.42.846.846 0 0 1 .018-.147.353.353 0 0 0 .03-.114.453.453 0 0 0 .006-.083.22.22 0 0 0-.054-.035c-.034-.018-.118-.167-.251-.447a4.526 4.526 0 0 0-.188-.379.736.736 0 0 0-.142-.159 1.584 1.584 0 0 0-.26-.197.323.323 0 0 0-.205-.072c-.06.005-.133.043-.218.115a4.623 4.623 0 0 1-.463.278c-.152.09-.311.167-.475.233a.864.864 0 0 0-.29.17.513.513 0 0 0-.165.226l-.028.1.172.244c.173.252.276.423.307.511a.212.212 0 0 1-.059.237c-.037.036-.054.062-.052.078.002.016.028.047.077.093.07.085.145.11.221.076a.165.165 0 0 1 .106-.004Zm-.219-1.132c-.11-.135-.16-.212-.148-.232.004-.011.07-.055.198-.132.087-.048.17-.103.25-.161.031-.019.05-.027.06-.023.008.003.023.03.044.078a.54.54 0 0 0 .139.182.592.592 0 0 1 .148.207.56.56 0 0 0 .125.185.166.166 0 0 0 .14.057.169.169 0 0 0 .114-.08.224.224 0 0 0 .038-.15.464.464 0 0 0-.061-.206c-.043-.086-.078-.14-.104-.154a1.372 1.372 0 0 1-.155-.124.708.708 0 0 1-.128-.125c-.006-.016.008-.037.045-.063l.152-.082a.435.435 0 0 1 .262-.062c.1.018.195.062.273.128a.4.4 0 0 1 .137.146c.029.057.096.232.202.525.02.05.028.103.025.156a.102.102 0 0 1-.043.077 1.47 1.47 0 0 1-.233.118c-.533.237-.891.32-1.075.252a.163.163 0 0 1-.093-.046.331.331 0 0 1-.032-.124c-.026-.09-.053-.136-.083-.138-.021-.003-.087-.073-.197-.209ZM45.254 72.317a.516.516 0 0 0 .145-.228c.023-.08.029-.21.017-.39 0-.178-.037-.28-.113-.305a.115.115 0 0 0-.098-.003.352.352 0 0 0-.1.112.457.457 0 0 1-.097.124c-.032.014-.076.085-.133.213a.94.94 0 0 0-.09.313c-.01.13.04.215.15.252.111.039.217.01.319-.088ZM60.644 93.243c.158.184.616.453 1.373.806.165.072.272.117.32.134a.331.331 0 0 0 .162.013.85.85 0 0 0 .408-.142.411.411 0 0 0 .113-.165.407.407 0 0 0 .043-.202c-.014-.154.062-.38.23-.674.124-.237.162-.364.112-.384-.024-.01-.06.007-.105.05a2.859 2.859 0 0 1-.509.43.798.798 0 0 1-.149.086.265.265 0 0 1-.131.007 7.457 7.457 0 0 0-.297-.027c-.129-.01-.306-.065-.53-.164a2.662 2.662 0 0 1-.554-.316.564.564 0 0 1-.202-.294.833.833 0 0 1-.027-.41 1.49 1.49 0 0 1 .07-.251c.028-.08.1-.248.215-.508.18-.4.29-.604.327-.613.023 0 .052-.043.084-.123a.385.385 0 0 0-.049-.408l-.06-.081.17.025c.11.026.337.114.685.266.182.075.36.16.533.255.119.071.232.151.339.24.051.04.109.074.17.098a.241.241 0 0 0 .15.026.615.615 0 0 0 .134-.068.21.21 0 0 0 .085-.085.515.515 0 0 0 .014-.184c-.004-.09-.033-.151-.085-.183a.207.207 0 0 1-.1-.106c-.016-.03-.08-.078-.192-.143-.112-.065-.181-.093-.208-.085-.013.009-.082 0-.206-.03a7.96 7.96 0 0 1-.325-.086c-1.046-.379-2.002-.64-2.867-.784-.697-.114-1.062-.129-1.095-.046-.02.05.015.149.105.298.089.15.17.243.24.282a.211.211 0 0 0 .166.01c.132-.031.344-.05.636-.055.291-.005.44.01.445.046.003.015-.008.031-.033.047-.026.016-.079.112-.16.29-.174.36-.323.617-.448.772-.04.055-.077.113-.107.175a.448.448 0 0 1-.104.133c-.157.161-.33.307-.515.436a8.507 8.507 0 0 1-.78.456c-.265.136-.4.21-.404.222-.005.012.028.012.1 0 .07-.011.13-.02.18-.023.141-.01.377-.06.709-.155.331-.094.514-.16.548-.2a.849.849 0 0 1 .123-.093c.058-.038.228-.191.51-.46.075-.07.196-.233.362-.49a1.87 1.87 0 0 0 .223-.462c.093-.302.08-.494-.04-.576-.047-.034-.068-.06-.061-.075.006-.017.069-.007.193.017.134.028.267.066.395.116l.277.091.01.083c0 .057-.104.325-.312.806a18.706 18.706 0 0 0-.498 1.214c-.067.2-.092.373-.074.519.017.135.05.267.101.393.038.112.094.216.167.31ZM61.125 88.487c.09-.006.181-.004.271.007.093.018.184.044.272.079.131.046.253.113.363.198.073.065.153.122.238.17.03.019.064.031.099.038a.268.268 0 0 0 .112-.03.527.527 0 0 0 .184-.111.264.264 0 0 0 .057-.15.277.277 0 0 0-.113-.257c-.085-.066-.248-.132-.488-.196a4.36 4.36 0 0 1-.481-.154 2.468 2.468 0 0 0-.49-.11c-.207-.029-.332-.033-.374-.013-.047.023-.07.05-.068.08a.619.619 0 0 0 .082.184c.113.184.225.272.336.265ZM84.733 92.527a1.265 1.265 0 0 0-.257.007.59.59 0 0 0-.179.098c-.062.043-.098.08-.104.104-.007.024.014.05.063.078a.212.212 0 0 1 .085.066c.007.017.07.056.19.117l.27.141c.055.028.117.04.178.035a.177.177 0 0 0 .092-.037.59.59 0 0 0 .08-.14.574.574 0 0 0 .056-.16.24.24 0 0 0-.02-.106.271.271 0 0 0-.142-.157.926.926 0 0 0-.312-.046Z"/><path fill="#000" d="M83.049 90.27c-.404.237-.625.446-.66.628-.02.086-.023.124-.01.119.012-.005.06.007.142.035.08.03.161.049.245.059.06.012.123.01.184-.004a.085.085 0 0 0 .049-.091.312.312 0 0 1 .062-.165.516.516 0 0 1 .146-.15c.065-.04.112-.071.141-.093.018-.016.03-.02.035-.01.014.029.025.06.033.09.033.166.05.334.052.503.004.07.014.2.029.39.014.137.014.275 0 .412a4.77 4.77 0 0 0-.038.313 3.285 3.285 0 0 1-.128.604 1.316 1.316 0 0 0-.029.159c-.011.079-.022.123-.033.132a.742.742 0 0 0-.056.195c-.037.14-.083.277-.139.41-.073.19-.123.296-.147.316a.039.039 0 0 0-.006.038c.016.041.117-.057.302-.295.129-.163.215-.268.258-.317.064-.083.118-.174.162-.27a3.9 3.9 0 0 1 .177-.323.854.854 0 0 0 .139-.329c.014-.058.034-.15.06-.275.04-.145.065-.293.075-.443.019-.197.022-.311.008-.344a.166.166 0 0 1 0-.11.172.172 0 0 0-.003-.117.114.114 0 0 1 0-.102.172.172 0 0 0 .011-.112.089.089 0 0 1 .015-.07c.01-.023.02-.02.032.008a.116.116 0 0 0 .066.059c.034.015.108.078.22.19.133.138.278.264.433.377.173.13.307.212.401.245.012.005.08.047.207.124.379.22.79.374 1.219.46.272.05.443.076.511.075h.233c.087 0 .14-.006.173-.031a.19.19 0 0 0 .06-.136c.005-.093.065-.215.177-.366.113-.151.219-.251.318-.3a.265.265 0 0 0 .127-.141c.021-.06.012-.098-.028-.115-.103-.053-.237-.061-.402-.023a.825.825 0 0 1-.303.026 2.568 2.568 0 0 0-.357 0 5.775 5.775 0 0 1-.879-.048c-.352-.04-.564-.085-.636-.133a3.788 3.788 0 0 0-.39-.19 3.132 3.132 0 0 1-.459-.236.486.486 0 0 0-.144-.085c-.017 0-.03-.013-.042-.038a.312.312 0 0 0-.09-.1 2.64 2.64 0 0 1-.267-.271c-.074-.09-.135-.142-.184-.158-.05-.016-.07-.03-.064-.042a1.07 1.07 0 0 1 .17-.128c.118-.077.25-.133.387-.164.27-.062.493-.081.669-.057.127.01.206.01.234-.002.029-.012.062-.054.1-.128a.392.392 0 0 0 .042-.117.408.408 0 0 0-.039-.142c-.042-.103-.091-.168-.15-.194-.058-.027-.098-.036-.12-.026a.505.505 0 0 1-.176 0 .77.77 0 0 0-.26.044c-.096.033-.158.069-.185.108-.023.024-.175.095-.456.213a.123.123 0 0 1-.04.023c-.213.086-.338.127-.375.124-.037-.004-.068-.059-.09-.164a.05.05 0 0 0 0-.021 3.56 3.56 0 0 0-.177-.545 3.296 3.296 0 0 0-.14-.341.248.248 0 0 0-.105-.09.584.584 0 0 0-.22-.05c-.087-.006-.135.005-.144.032-.008.014 0 .051.025.113.024.061.04.126.048.191.021.128.05.254.087.378.076.246.134.498.175.753a.13.13 0 0 1-.026.104c-.076.06-.157.11-.242.153ZM103.073 77.007c.02.009.077 0 .172-.029.094-.028.147-.054.158-.078.007-.017-.006-.064-.039-.142a.43.43 0 0 0-.07-.104.73.73 0 0 0-.158-.085l-.175-.078v-.101a.538.538 0 0 0-.028-.191 1.403 1.403 0 0 1-.057-.256 2.32 2.32 0 0 0-.05-.248l-.07-.22a.885.885 0 0 0-.177-.301 1.546 1.546 0 0 1-.154-.2.468.468 0 0 0-.105-.116 3.197 3.197 0 0 1-.129-.134 1.467 1.467 0 0 1-.117-.143c-.029-.043-.04-.067-.033-.073a.236.236 0 0 1 .115 0c.191.005.381 0 .571-.015.14-.01.224-.004.254.019.031.022.076.106.135.234.053.112.095.229.127.349l.098.32c.046.146.076.248.089.305.014.057.032.091.056.102.025.01.054-.015.089-.077a.462.462 0 0 0 .059-.192.768.768 0 0 1 .019-.159c.008-.016-.002-.096-.027-.24a1.475 1.475 0 0 1-.032-.23 1.607 1.607 0 0 0-.085-.25c-.052-.144-.076-.236-.073-.276.003-.04.042-.076.121-.11l.235-.105c.176-.088.346-.187.508-.299.224-.147.367-.251.428-.311.129-.143.187-.28.173-.41a1.08 1.08 0 0 1 .043-.469c.035-.1.049-.161.042-.18a.188.188 0 0 1 .027-.11c.042-.092.042-.148 0-.166-.017-.007-.026-.028-.03-.064a.105.105 0 0 0-.026-.043c-.049-.041-.147.044-.293.256a2.888 2.888 0 0 1-.347.376 1.456 1.456 0 0 0-.146.167 2.867 2.867 0 0 1-.724.623c-.096.064-.196.121-.3.17a.12.12 0 0 1-.104-.002.849.849 0 0 1-.134-.147 11.172 11.172 0 0 0-.306-.348 2.928 2.928 0 0 0-.205-.213.28.28 0 0 1-.096-.094.594.594 0 0 0-.25-.22.253.253 0 0 0-.212-.014.45.45 0 0 0-.18.12.757.757 0 0 0-.121.218.949.949 0 0 1-.101.195c-.006.002-.013 0-.02-.013l-.03-.046a.796.796 0 0 1-.039-.068 1.844 1.844 0 0 0-.154-.323c-.068-.118-.1-.183-.094-.195.005-.013-.014-.05-.059-.114l-.018-.023a1.145 1.145 0 0 0-.183-.202c-.025-.014-.068 0-.13.04a.622.622 0 0 1-.244.106c-.093.02-.151.046-.176.08-.042.053-.097.28-.164.681s-.087.632-.06.694c.005.021.038.05.099.088.06.037.102.052.123.047a.108.108 0 0 1 .092.03c.091.062.186.118.284.168a16.418 16.418 0 0 1 1.272.798.977.977 0 0 1 .155.15.704.704 0 0 0 .13.137c.019.008.051.05.098.124.023.042.05.081.082.117.012.005.049.079.112.22.063.143.121.285.173.427.054.142.075.213.065.213-.019.011-.159-.04-.42-.155-.261-.114-.411-.187-.45-.219-.043-.043-.171-.113-.385-.208-.212-.096-.317-.151-.31-.168a.24.24 0 0 1 .077-.067c.043-.029.097-.067.159-.115.062-.047.11-.085.142-.107a.204.204 0 0 0 .067-.128.377.377 0 0 0 0-.164.504.504 0 0 0-.112-.173c-.058-.065-.104-.098-.137-.098-.07-.007-.177.12-.32.38-.11.194-.175.286-.195.277-.021-.009-.054-.065-.1-.168a.457.457 0 0 0-.091-.153.126.126 0 0 0-.112-.024.335.335 0 0 1-.138-.008 4.855 4.855 0 0 0-.139-.03c-.038-.007-.058-.034-.058-.08a.389.389 0 0 1 .042-.167.34.34 0 0 0 .01-.261.28.28 0 0 0-.058-.108.273.273 0 0 0-.097-.074.121.121 0 0 0-.134.027c-.057.048-.104.16-.142.337a.165.165 0 0 1-.028.064c-.007.004-.03-.003-.07-.021a.315.315 0 0 1-.134-.14.475.475 0 0 0-.08-.108.363.363 0 0 0-.134-.03.731.731 0 0 1-.209-.036.285.285 0 0 0-.127-.016.517.517 0 0 0-.134.082c-.124.095-.17.172-.138.23.033.054.079.1.134.132.11.06.224.11.341.152.354.139.52.233.498.28a2.401 2.401 0 0 0-.047.354 3.183 3.183 0 0 0-.025.415.285.285 0 0 0 .059.18.174.174 0 0 0 .053.06.114.114 0 0 0 .068-.007.182.182 0 0 0 .121-.062.35.35 0 0 0 .102-.122.274.274 0 0 0-.004-.147 1.066 1.066 0 0 1-.012-.253.732.732 0 0 1 .029-.213c.011-.024.051-.015.122.029.05.028.096.063.139.102l.266.315c.128.159.221.28.28.365.076.115.144.236.203.36.073.14.127.236.158.29.071.141.135.288.19.437.095.239.145.36.151.362a.18.18 0 0 0 .062 0c.026-.003.043-.01.045-.02a.323.323 0 0 0 0-.098 1.09 1.09 0 0 0-.024-.213 1.228 1.228 0 0 1-.028-.234.853.853 0 0 0-.09-.328 22.292 22.292 0 0 1-.227-.56.722.722 0 0 1-.042-.127 4.42 4.42 0 0 1 .365.18c.237.124.444.225.619.303.12.048.235.11.343.182.147.114.252.165.315.155a.174.174 0 0 1 .112.013Zm-1.067-2.964a1.344 1.344 0 0 1-.208.02c-.068 0-.117 0-.146.004l-.104.005a.224.224 0 0 0-.082.014c-.015.008-.102-.027-.261-.106-.158-.078-.248-.13-.27-.157a.209.209 0 0 0-.111-.06c-.22-.06-.351-.085-.394-.074a.062.062 0 0 1-.068-.01.099.099 0 0 1-.014-.02.103.103 0 0 1-.007-.097.257.257 0 0 0 .027-.128c-.004-.099.031-.234.106-.404l.068-.137.064.036c.052.023.132.103.241.239.11.129.212.264.306.405a.717.717 0 0 0 .079.109.654.654 0 0 1 .067.117.433.433 0 0 0 .141.14.182.182 0 0 0 .148.026c.068-.024.085-.072.05-.146a.343.343 0 0 1-.031-.145.5.5 0 0 1 .036-.162c.024-.064.042-.098.059-.1.023-.01.118.025.286.105.168.08.273.141.316.185.153.146.224.231.212.256-.007.016-.04.03-.099.043a.909.909 0 0 1-.182.02c-.077.002-.153.01-.229.022ZM46.004 50.772l.292-.088a.34.34 0 0 0 .152-.1.187.187 0 0 0 .042-.091.594.594 0 0 0-.042-.156.575.575 0 0 0-.07-.155.234.234 0 0 0-.089-.061.269.269 0 0 0-.211-.014.927.927 0 0 0-.255.186 1.222 1.222 0 0 0-.18.186.597.597 0 0 0-.06.194c-.013.077-.014.126-.003.148.012.022.046.026.1.011a.2.2 0 0 1 .106-.01c.017.007.09-.01.218-.05Z"/><path fill="#000" d="M47.648 48.598a3.5 3.5 0 0 1 .17-.162c.065-.058.096-.102.102-.143a.19.19 0 0 0-.051-.14c-.061-.07-.103-.199-.127-.386-.025-.187-.018-.333.018-.439a.266.266 0 0 0-.008-.188c-.025-.057-.058-.078-.099-.063-.11.034-.212.122-.304.266a.838.838 0 0 1-.199.231 2.52 2.52 0 0 0-.257.249 5.88 5.88 0 0 1-.664.581c-.28.218-.463.334-.547.35-.14.038-.277.084-.411.138-.16.064-.325.115-.493.152-.096.015-.15.029-.162.042-.013.014-.03.012-.055 0a.312.312 0 0 0-.134-.008 2.67 2.67 0 0 1-.381-.008c-.115-.013-.196-.008-.242.016-.046.023-.071.028-.075.014.005-.071.016-.141.034-.21.032-.139.087-.27.164-.39.15-.233.297-.403.44-.51a.73.73 0 0 0 .167-.167c.012-.029.007-.082-.017-.16a.391.391 0 0 0-.051-.114.41.41 0 0 0-.127-.074c-.101-.043-.182-.056-.242-.035-.06.022-.095.043-.105.067a.51.51 0 0 1-.127.122.766.766 0 0 0-.156.213c-.047.09-.066.16-.058.207 0 .034-.06.191-.179.473a.117.117 0 0 1-.012.046c-.093.21-.154.328-.183.35-.03.024-.09.006-.179-.053a.057.057 0 0 0-.016-.014 3.536 3.536 0 0 0-.504-.268 3.303 3.303 0 0 0-.339-.145.24.24 0 0 0-.137.008.584.584 0 0 0-.193.118c-.066.058-.093.1-.08.124.003.016.035.037.095.064a.723.723 0 0 1 .17.104c.103.076.212.146.324.209.225.124.441.264.647.418a.128.128 0 0 1 .054.093 1.43 1.43 0 0 1-.071.277c-.127.453-.14.757-.04.913.045.073.07.104.076.092.005-.012.048-.038.127-.075.077-.034.15-.077.216-.128a.43.43 0 0 0 .13-.131.088.088 0 0 0-.029-.1.307.307 0 0 1-.07-.162.53.53 0 0 1 0-.21c.018-.074.03-.128.037-.166 0-.023.007-.034.017-.032.03.012.058.026.085.043.138.095.267.204.386.323l.29.26c.106.088.202.187.287.294.049.07.112.154.19.252.125.163.235.338.327.522a1.3 1.3 0 0 0 .09.135c.046.064.068.103.067.117a.752.752 0 0 0 .095.18c.07.127.132.257.186.392.078.187.116.297.112.33a.038.038 0 0 0 .022.03c.04.019.044-.123.012-.423-.02-.207-.031-.343-.034-.407a1.396 1.396 0 0 0-.071-.308 4.747 4.747 0 0 1-.097-.355.858.858 0 0 0-.127-.334 7.95 7.95 0 0 0-.148-.24 2.237 2.237 0 0 0-.255-.37c-.123-.154-.2-.238-.233-.252a.163.163 0 0 1-.077-.078.174.174 0 0 0-.085-.081.113.113 0 0 1-.069-.074.17.17 0 0 0-.069-.09.09.09 0 0 1-.039-.06c-.008-.023 0-.028.03-.016a.114.114 0 0 0 .088-.004c.035-.014.131-.02.29-.017a3.49 3.49 0 0 0 .57-.034c.215-.029.368-.064.459-.106.011-.004.09-.023.234-.056a3.992 3.992 0 0 0 1.192-.525c.237-.154.38-.255.428-.304ZM63.177 33.257a6.64 6.64 0 0 1 .607-.223c.075-.022.148-.049.22-.08a.15.15 0 0 0 .07-.082c.044-.104.015-.2-.088-.29a.418.418 0 0 0-.362-.1c-.085.011-.13.012-.135 0-.004-.011.023-.096.08-.259.046-.112.078-.23.094-.35.013-.108.039-.214.077-.315.046-.139.057-.237.034-.294a.311.311 0 0 0-.273-.198c-.147-.01-.423.05-.826.181-.404.132-.665.245-.783.341-.135.108-.26.229-.372.36a.465.465 0 0 0-.1.272.566.566 0 0 0 .144.393.543.543 0 0 1 .09.114c.022.034.013.052-.029.055a4.865 4.865 0 0 0-.625.097.106.106 0 0 1-.041-.009.367.367 0 0 1-.077-.108 2.796 2.796 0 0 1-.19-.354.202.202 0 0 1-.005-.148.174.174 0 0 1 .06-.077.555.555 0 0 1 .13-.047c.227-.064.358-.103.395-.118a.096.096 0 0 0 .065-.07.309.309 0 0 0-.029-.16c-.027-.066-.092-.12-.195-.164l-.164-.07-.17.092c-.07.038-.135.084-.194.136a.038.038 0 0 1-.008.014.038.038 0 0 1-.012.01c-.01 0-.005-.072.014-.214a.55.55 0 0 0-.015-.266.144.144 0 0 0-.065-.082.703.703 0 0 0-.163-.042c-.122-.018-.184-.03-.187-.039-.007-.016.018-.06.075-.131a.448.448 0 0 1 .122-.122.1.1 0 0 0 .05-.063.455.455 0 0 1 .123-.144.398.398 0 0 0 .114-.143.371.371 0 0 0 .003-.185c-.032-.15-.148-.231-.349-.245a.63.63 0 0 0-.17-.009.551.551 0 0 0-.09.066.503.503 0 0 0-.128.128.504.504 0 0 0-.076.128 5.115 5.115 0 0 1-.156.469c-.09.244-.15.393-.181.444-.021.043-.05.1-.085.174a2.502 2.502 0 0 1-.12.225c-.068.114-.084.178-.05.193.069.028.221-.065.458-.281l.122-.122.005.086c.024.115.056.23.096.34l.09.243-.112.111a6.27 6.27 0 0 1-.282.263 9.048 9.048 0 0 0-.454.44c-.2.211-.313.358-.339.44-.026.083.027.148.16.194.294.09.45.063.466-.083a.303.303 0 0 1 .05-.132l.19-.282c.09-.125.19-.24.302-.347.031-.022.063-.042.097-.06.008-.004.014.01.017.042.003.092 0 .185-.009.277-.002.08-.014.158-.033.235a.14.14 0 0 0-.012.077c.014.033-.091.42-.315 1.163a.288.288 0 0 0-.015.05c-.212.733-.284 1.085-.215 1.056a2.741 2.741 0 0 0 .287-.425.81.81 0 0 1 .095-.153c.062-.095.115-.195.16-.299.055-.12.116-.236.184-.348.053-.088.094-.184.121-.283.067-.199.138-.314.212-.344.032-.014.094.138.185.455.046.163.104.357.17.583.047.147.086.297.116.448.003.066.029.13.073.179.045.06.1.113.163.155.04.017.074.046.097.082.01.025.04.032.088.022a.216.216 0 0 0 .205-.199c.008-.085-.04-.278-.142-.578l-.18-.525c-.018-.05-.094-.244-.228-.581-.135-.338-.19-.517-.164-.537.019-.012.104-.002.254.03.13.025.256.058.382.097a.237.237 0 0 0 .222-.026.376.376 0 0 0 .147-.128.146.146 0 0 1 .054-.069c.017-.006.162.111.436.353.181.166.285.247.313.245.02 0 .028-.05.024-.153-.004-.104.01-.174.043-.213.024-.034.145-.097.362-.189Zm-.532-.353a.303.303 0 0 1-.109.049.11.11 0 0 1-.076-.03c-.092-.063-.197-.195-.316-.395l-.13-.197a.147.147 0 0 1 .006-.161.785.785 0 0 1 .223-.196c.101-.063.316-.171.644-.325.057-.023.088-.029.093-.016.01.04.014.082.015.123.02.233-.015.467-.103.682a2.373 2.373 0 0 0-.114.327c-.01.052-.054.098-.133.14ZM85.798 31.696c.034.05.081.09.135.116.062.02.128.025.191.013a.337.337 0 0 0 .294-.225c.054-.136-.003-.288-.173-.457a.876.876 0 0 1-.17-.198.167.167 0 0 0-.15-.069c-.042-.002-.1-.007-.173-.013-.156-.015-.202.053-.139.203.033.085.043.139.034.164-.008.024.006.085.047.177.041.091.058.15.05.17-.008.02.007.06.054.12Z"/><path fill="#000" d="M84.407 32.726c.002.132.02.456.056.973.01.214.036.428.08.639.038.176.06.281.065.317.036.192.093.38.17.559.075.205.17.404.282.592.096.165.221.31.37.43.141.11.27.162.386.156a.347.347 0 0 0 .153-.024c.109-.07.218-.23.327-.477.067-.147.147-.287.24-.42.088-.126.134-.205.137-.237.007-.04-.002-.062-.027-.065a.093.093 0 0 0-.078.042.608.608 0 0 1-.27.203c-.124.053-.213.067-.272.042a.837.837 0 0 1-.225-.166 1.47 1.47 0 0 1-.227-.268 3.484 3.484 0 0 1-.367-.802 4.658 4.658 0 0 1-.222-.914 5.019 5.019 0 0 0-.038-.26 2.117 2.117 0 0 1-.02-.66c.014-.07.037-.107.068-.109.031-.001.113.037.243.113l.284.166a.256.256 0 0 0 .09.033.166.166 0 0 0 .09-.04c.067-.034.106-.066.117-.095a.3.3 0 0 0 .006-.156.332.332 0 0 0-.06-.153.831.831 0 0 0-.206-.128c-.107-.053-.17-.073-.19-.062-.019.012-.076-.01-.19-.056l-.166-.068.022-.09c.059-.271.136-.537.234-.795.119-.287.198-.496.237-.628.016-.051.04-.116.07-.194a.347.347 0 0 0 .021-.113.299.299 0 0 0-.063-.12.587.587 0 0 0-.127-.144c-.027-.015-.059-.005-.095.033-.037.038-.118.201-.243.49-.08.178-.14.3-.175.366-.047.091-.07.1-.07.03.013-.114-.056-.214-.207-.3-.09-.046-.147-.06-.17-.042-.023.018-.08.024-.178.018-.349-.042-.58-.04-.694.005-.063.027-.096.045-.1.056-.005.01.022.054.078.132.048.06.085.129.108.202.016.056.063.098.143.126.08.027.116.054.122.085.007.03-.016.07-.067.115a.734.734 0 0 0-.07.066l.105.014c.036.004.072.006.108.007.267.033.468.014.6-.057.061-.033.1-.046.116-.04.016.007-.022.156-.115.448l-.059.2-.194-.05a39.995 39.995 0 0 0-.493-.086l-.491-.092a5.544 5.544 0 0 0-.582-.06 2.953 2.953 0 0 0-.503-.007 1.154 1.154 0 0 0-.255.077l-.127.049.043.089c.07.134.148.218.234.253.045.018.148.022.31.01.117-.01.276-.012.476-.007.2.005.312.012.337.022.02.008.02.02-.003.035-.022.015-.127.25-.312.705-.184.456-.289.712-.312.767a.128.128 0 0 1-.059.077.602.602 0 0 1-.158.022c-.038 0-.07-.003-.099-.004-.11-.007-.132-.04-.06-.097.021-.02.095-.179.22-.477.124-.298.191-.479.202-.541.005-.037-.017-.089-.066-.156l-.067-.1-.092.035a.26.26 0 0 0-.127.139c-.034.07-.139.32-.316.75-.051.121-.12.235-.203.337-.078.095-.145.141-.2.137a.162.162 0 0 0-.11.039.203.203 0 0 0-.078.108.11.11 0 0 1-.05.073c-.025.013-.029.037-.011.07a.109.109 0 0 1 .009.094c-.012.028 0 .073.031.134.034.063.09.112.155.139a.3.3 0 0 0 .202.02c.096-.037.416-.082.96-.134.116-.012.23-.041.339-.085.133-.057.262-.125.384-.203.16-.097.254-.164.284-.2a.464.464 0 0 1 .149-.086c.067-.027.098-.047.091-.06-.006-.012-.092-.01-.254.005-.28.02-.452.024-.519.012-.045-.004-.058-.021-.036-.05a.639.639 0 0 0 .07-.184.53.53 0 0 1 .084-.198c.03-.031.083-.043.16-.035.203.005.343.024.42.055.057.023.118-.01.184-.101.066-.09.078-.158.038-.203a.626.626 0 0 0-.203-.128c-.106-.05-.17-.063-.184-.046a.356.356 0 0 1-.123.022.405.405 0 0 1-.127 0c-.013-.005-.003-.047.029-.125.07-.176.068-.319-.008-.426-.058-.091-.037-.128.066-.11.052.01.106.017.16.018.125.012.25.03.373.055.17.04.267.071.291.093.025.022.029.09.012.202a2.62 2.62 0 0 0-.028.433ZM103.319 50.952a.257.257 0 0 0 .17.092c.055.014.128.002.22-.036.091-.039.146-.074.165-.107.019-.033.018-.105 0-.204a.82.82 0 0 1-.019-.192.38.38 0 0 0-.025-.145 1.973 1.973 0 0 1-.054-.252 3.593 3.593 0 0 0-.094-.41l-.074-.25.127-.057a.534.534 0 0 0 .306-.37l.069-.205a.4.4 0 0 0-.018-.256l-.053-.151-.078.035a1.125 1.125 0 0 0-.399.243.853.853 0 0 1-.185.138.072.072 0 0 1-.051-.001.072.072 0 0 1-.038-.036 2.567 2.567 0 0 0-.244-.29 1.15 1.15 0 0 0-.212-.189l-.107-.061.103-.046c.048-.022.075-.04.08-.055a.313.313 0 0 0 0-.105c-.038-.285-.081-.435-.127-.453-.025-.012-.055-.06-.091-.14a1.62 1.62 0 0 0-.284-.398c-.028-.03-.031-.052-.006-.062.024-.01.049 0 .075.039.078.1.233.099.466-.006l.2-.09-.019-.107a.83.83 0 0 0-.071-.234c-.037-.078-.066-.113-.085-.104-.098.04-.344.04-.737.003l-.33-.027a2.243 2.243 0 0 1-.318-.047l-.259-.043-.329-.056a2.55 2.55 0 0 0-.359-.059 1.636 1.636 0 0 0-.252-.029c-.119-.007-.179-.006-.18.004-.01.01.025.038.106.086.06.036.124.065.19.085.081.023.161.051.238.085.381.174.715.287 1.003.337l.174.032.026.128a.33.33 0 0 0 .099.189 1.003 1.003 0 0 1 .178.301c.018.053.023.08.015.086-.024.01-.147.01-.37 0-.193-.011-.32-.005-.381.018-.081.036-.017.087.191.154.1.026.193.07.275.132.088.071.181.136.278.193.129.08.195.128.196.14.001.014-.051.022-.158.02a.52.52 0 0 0-.269.063 2.16 2.16 0 0 0-.186.12.238.238 0 0 0-.098.076.237.237 0 0 0-.048.116c-.011.086.022.138.098.157.074.015.111.032.109.049-.002.017-.042.039-.117.064a2.91 2.91 0 0 1-.238.051c-.058.01-.301.105-.727.286-.755.323-1.22.49-1.393.5a.417.417 0 0 0-.127.019.357.357 0 0 0-.093.078.603.603 0 0 0-.193.348c-.017.114.023.17.12.17.063 0 .096.006.1.014.007.016.047.018.118.005a.5.5 0 0 0 .16-.05c.034-.03.059-.036.074-.018a.457.457 0 0 1 .053.144c.025.09.048.143.07.158.048.022.115.115.199.278.083.16.151.329.204.502.019.07.044.14.074.207.023.043.055.08.092.112.03.03.066.053.106.066.044.003.089 0 .132-.012a.699.699 0 0 0 .172-.043.223.223 0 0 0 .077-.096.229.229 0 0 1 .163-.121c.079-.018.138-.005.178.043.039.047.122.08.256.089.134.008.221-.01.26-.051a.267.267 0 0 0 .053-.159.681.681 0 0 0-.02-.242.724.724 0 0 1-.015-.197 1.59 1.59 0 0 0-.06-.29.774.774 0 0 0-.116-.272l-.164-.239a1.894 1.894 0 0 0-.173-.21 1.032 1.032 0 0 1-.122-.145c-.028-.043-.04-.068-.035-.08.005-.012.027-.026.067-.042a.207.207 0 0 1 .08-.025c.012.002.025.016.038.042.03.06.073.111.127.15.08.075.141.167.18.27a.698.698 0 0 0 .165.255l.077.06.215-.103.209-.116.157.06c.099.04.16.083.181.131.021.049.071.081.148.098a.37.37 0 0 0 .231-.027.344.344 0 0 0 .094-.057.129.129 0 0 0 .028-.092.285.285 0 0 1 .042-.105c.008-.004.018.003.029.023a.406.406 0 0 1 .029.067c.009.025.01.042.004.049-.016.017-.007.04.03.067.036.027.078.117.127.27.029.095.071.185.125.268Zm-2.37-.352c.007.021.006.036 0 .043a.075.075 0 0 1-.039.018.4.4 0 0 1-.153.014.295.295 0 0 0-.117.005.432.432 0 0 1-.137.01.223.223 0 0 1-.142-.05 1.2 1.2 0 0 1-.145-.237c-.047-.087-.1-.17-.16-.248-.049-.056-.071-.09-.068-.104.003-.014.033-.03.085-.05a1.75 1.75 0 0 0 .27-.077l.165-.052.109.198c.07.12.146.237.228.35l.07.11a.306.306 0 0 1 .034.07Zm1.475-.812a.451.451 0 0 1-.147-.022 1.383 1.383 0 0 0-.247-.035.385.385 0 0 1-.17-.036.51.51 0 0 1-.134-.147c-.057-.083-.081-.137-.072-.165.008-.027.066-.065.173-.114l.158-.07.185.223c.206.228.29.35.254.365Zm.551.284-.062-.191a2.595 2.595 0 0 0-.257-.49 1.707 1.707 0 0 0-.308-.378.833.833 0 0 1-.107-.142l-.063-.095.187-.085c.058-.028.118-.052.179-.07a.222.222 0 0 1 .127.027.5.5 0 0 1 .205.12c.095.083.186.224.274.422.089.203.156.415.2.632.032.17.039.263.022.278-.018.015-.085.012-.206-.007l-.191-.022Z"/><path fill="#000" d="M98.16 48.492a.17.17 0 0 0 .144.096.333.333 0 0 0 .136-.021c.084-.038.24-.042.466-.012l.197.01.116.01.394.057c.042.005.11.01.208.012l.235.008c.06.002.094-.01.104-.036.01-.026-.135-.094-.433-.202-.3-.11-.453-.17-.46-.188-.007-.017.053-.045.179-.085.16-.053.474-.194.942-.422.186-.093.294-.135.324-.128.05.005.1-.003.145-.025.133-.034.27-.044.407-.03a.167.167 0 0 0 .11-.06.139.139 0 0 0 .038-.054.147.147 0 0 0 .011-.066.267.267 0 0 1 .023-.127.118.118 0 0 0 0-.116.077.077 0 0 0-.085-.043c-.155.019-.308.05-.457.096-.118.038-.389.147-.811.326-.495.202-.81.323-.947.362-.138.04-.222.033-.255-.02a.126.126 0 0 0-.127-.043.84.84 0 0 0-.203.095.553.553 0 0 0-.156.124.302.302 0 0 1-.127.1.333.333 0 0 0-.13.11.18.18 0 0 0-.046.13c.01.05.03.098.058.142ZM73.1 55.074c.632 0 1.145-.515 1.145-1.151s-.513-1.151-1.145-1.151-1.145.515-1.145 1.15c0 .637.513 1.152 1.145 1.152Z"/><path fill="#000" d="M86.692 60.683c0-7.628-6.171-13.833-13.757-13.833-7.585 0-13.757 6.205-13.757 13.833s6.171 13.834 13.757 13.834c7.586 0 13.757-6.206 13.757-13.834ZM72.94 68.467a1.154 1.154 0 0 1-1.07-.72 1.171 1.171 0 0 1 .25-1.27 1.157 1.157 0 0 1 1.979.825 1.17 1.17 0 0 1-.716 1.077c-.14.058-.291.088-.443.088Zm6.392-12.891a6.614 6.614 0 0 1-1.049 2.345l-.085.115a7.272 7.272 0 0 1-.775.872 6.553 6.553 0 0 1-2.198 1.371 6.684 6.684 0 0 1-2.286.412v-.019h-.004c-.021 0-.161.01-.352.027l-.068.005a6.654 6.654 0 0 0-1.875.405 6.431 6.431 0 0 0-1.737.99 6.58 6.58 0 0 0-.46.401c-.282.274-.541.57-.776.885l-.085.116a7.02 7.02 0 0 0-.645 1.147 6.774 6.774 0 0 0-.569 2.721c0 .06.003.88.204 1.675.072.278.16.551.264.82a5.427 5.427 0 0 0 .275.607c.178.338.382.663.608.971a6.717 6.717 0 0 0 .98 1.047 6.6 6.6 0 0 0 2.068 1.206c-6.2-1.044-10.94-6.479-10.94-13.005 0-7.271 5.883-13.186 13.114-13.187h.116a6.644 6.644 0 0 1 2.001.349 6.646 6.646 0 0 1 3.091 2.236c.227.303.43.624.608.959.066.128.127.255.127.255.013.029.043.09.077.17a6.71 6.71 0 0 0 .335.981c.201.785.204 1.593.204 1.652a6.653 6.653 0 0 1-.168 1.47Z"/><path fill="#000" d="M98.856 60.716a26.128 26.128 0 0 0-1.965-9.962 26.013 26.013 0 0 0-5.61-8.445 25.85 25.85 0 0 0-8.398-5.64 25.733 25.733 0 0 0-9.906-1.976h-.011a25.79 25.79 0 0 0-14.388 4.388 26.006 26.006 0 0 0-9.537 11.687 26.17 26.17 0 0 0-1.472 15.046c1 5.05 3.467 9.69 7.09 13.332a25.85 25.85 0 0 0 13.26 7.123 25.759 25.759 0 0 0 14.962-1.487 25.925 25.925 0 0 0 11.618-9.596 26.14 26.14 0 0 0 4.357-14.47Zm-25.88 24.872a24.513 24.513 0 0 1-7.842-1.281 22.474 22.474 0 0 1-2.592-1.345 19.834 19.834 0 0 1-8.986-13.492 20.577 20.577 0 0 1-.257-4.15c.052-1.3.23-2.594.531-3.86a19.825 19.825 0 0 1 2.696-6.196c1.153-1.695 3.306-4.348 6.83-6.394 1.534-.89 4.942-2.813 9.557-2.728 2.954.053 5.069.903 5.541 1.1a14.504 14.504 0 0 1 6.621 5.565 14.626 14.626 0 0 1-.54 16.558 14.49 14.49 0 0 1-6.971 5.116l.048-.009a20.46 20.46 0 0 0 1.556-.358 18.356 18.356 0 0 0 1.434-.451 20.357 20.357 0 0 0 2.307-.997 19.277 19.277 0 0 0 1.582-.905c.048-.031.254-.163.524-.346.365-.25.628-.446.701-.5a20.37 20.37 0 0 0 1.962-1.677 19.653 19.653 0 0 0 3.331-4.286 19.881 19.881 0 0 0 1.858-4.366 19.318 19.318 0 0 0 .614-2.973 20.032 20.032 0 0 0 .138-3.531 21.175 21.175 0 0 0-.084-1.093 21.072 21.072 0 0 0-.47-2.69 19.956 19.956 0 0 0-1.431-3.934s-1.099-2.246-2.715-4.135c-.375-.437-.78-.859-.78-.859a20.123 20.123 0 0 0-1.293-1.232 24.877 24.877 0 0 1 10.865 20.577c0 13.715-11.094 24.872-24.733 24.872h-.001Z"/></svg>