<svg xmlns="http://www.w3.org/2000/svg" width="36" height="36" fill="none"><circle cx="18" cy="18" r="17.25" stroke="#161616" stroke-width="1.5"/><path fill="#161616" d="M18 25.559c2.463.062 4.927-.09 7.364-.455a2.678 2.678 0 0 0 1.818-1.454S28 21.923 28 18.286c0-3.636-.818-5.363-.818-5.363a2.946 2.946 0 0 0-1.818-1.455A42.519 42.519 0 0 0 18 11.014a42.519 42.519 0 0 0-7.364.454 2.678 2.678 0 0 0-1.818 1.455S8 14.65 8 18.286c0 3.637.818 5.364.818 5.364a2.947 2.947 0 0 0 1.818 1.454c2.437.365 4.9.517 7.364.455Z"/><path fill="#F5F5F5" d="M15.531 20.76v-4.947a.6.6 0 0 1 .909-.515l4.122 2.473a.602.602 0 0 1 0 1.03l-4.122 2.473a.6.6 0 0 1-.909-.515Z"/></svg>